<svg width="19" height="17" viewBox="0 0 19 17" fill="none" xmlns="http://www.w3.org/2000/svg">
<path d="M16.6394 16.1104H3.14374C1.84063 16.1104 0.783203 15.0529 0.783203 13.7498V3.25022C0.783203 1.94711 1.84063 0.889648 3.14374 0.889648H16.6394C17.9425 0.889648 19 1.94711 19 3.25022V13.7498C19 15.0529 17.9425 16.1104 16.6394 16.1104ZM3.14374 2.61468C2.79126 2.61468 2.50286 2.90308 2.50286 3.25556V13.7552C2.50286 14.1076 2.79126 14.396 3.14374 14.396H16.6394C16.9919 14.396 17.2803 14.1076 17.2803 13.7552V3.25556C17.2803 2.90308 16.9919 2.61468 16.6394 2.61468H3.14374Z" fill="#BDBDBD"/>
<path d="M9.88899 10.3152L1.13574 3.94924L2.14512 2.56067L9.88899 8.18968L17.6329 2.56067L18.6422 3.94924L9.88899 10.3152Z" fill="#BDBDBD"/>
</svg>
