<svg width="16" height="19" viewBox="0 0 16 19" fill="none" xmlns="http://www.w3.org/2000/svg">
<path d="M14.1286 18.8764H2.62137C1.59188 18.8764 0.75 18.0537 0.75 17.0435V8.31203C0.75 7.26329 1.57264 6.44065 2.62137 6.44065H14.1286C15.1774 6.44065 16 7.26329 16 8.31203V17.0435C16 18.0537 15.1629 18.8764 14.1286 18.8764ZM2.62137 8.17251C2.53478 8.17251 2.48185 8.23025 2.48185 8.31203V17.0435C2.48185 17.082 2.52997 17.1445 2.62137 17.1445H14.1286C14.2152 17.1445 14.2681 17.0868 14.2681 17.0435V8.31203C14.2681 8.22544 14.2104 8.17251 14.1286 8.17251H2.62137Z" fill="#BDBDBD"/>
<path d="M12.5995 8.17198C12.1232 8.17198 11.7335 7.78713 11.7335 7.30606V2.75992C11.7335 2.26923 11.3199 1.85551 10.8292 1.85551H5.91739C5.4267 1.85551 5.01297 2.26923 5.01297 2.75992V7.30606C5.01297 7.78232 4.62815 8.17198 4.14708 8.17198C3.66601 8.17198 3.28113 7.78713 3.28113 7.30606V2.75992C3.28113 1.30709 4.46455 0.123648 5.91739 0.123648H10.8292C12.282 0.123648 13.4654 1.30709 13.4654 2.75992V7.30606C13.4654 7.78232 13.0806 8.17198 12.5995 8.17198Z" fill="#BDBDBD"/>
<path d="M8.37523 14.413C7.89897 14.413 7.50934 14.0281 7.50934 13.547V11.7767C7.50934 11.3004 7.89416 10.9108 8.37523 10.9108C8.8563 10.9108 9.24118 11.2956 9.24118 11.7767V13.547C9.24118 14.0233 8.8563 14.413 8.37523 14.413Z" fill="#BDBDBD"/>
</svg>
